<?xml version="1.0" encoding="utf-8"?>
<!-- Generator: Adobe Illustrator 23.0.2, SVG Export Plug-In . SVG Version: 6.00 Build 0)  -->
<svg version="1.1" id="Layer_1" xmlns="http://www.w3.org/2000/svg" xmlns:xlink="http://www.w3.org/1999/xlink" x="0px" y="0px"
	 viewBox="0 0 1000 560" style="enable-background:new 0 0 1000 560;" xml:space="preserve">
<style type="text/css">
	.st0{fill:none;stroke:#000000;stroke-width:2;stroke-linecap:square;}
	.st1{fill-opacity:0;stroke:#000000;stroke-width:2;}
	.st2{font-family:'ArialMT';}
	.st3{font-size:8.4978px;}
	.st4{fill-opacity:0;stroke:#000000;stroke-linecap:square;}
	.st5{font-size:11px;}
	.st6{fill-opacity:0;stroke:#000000;stroke-width:2;stroke-linecap:square;}
	.st7{fill:none;stroke:#000000;stroke-width:18;stroke-miterlimit:10;}
	.st8{fill:none;stroke:#000000;stroke-miterlimit:10;}
	.st9{font-size:8px;}
</style>
<line class="st0" x1="778.1" y1="50" x2="778.1" y2="170"/>
<line class="st0" x1="528.1" y1="50" x2="778.1" y2="50"/>
<line class="st0" x1="528.1" y1="50" x2="528.1" y2="180"/>
<line class="st0" x1="528.1" y1="180" x2="578.1" y2="180"/>
<line class="st0" x1="758.1" y1="190" x2="778.1" y2="190"/>
<line class="st0" x1="758.1" y1="70" x2="758.1" y2="190"/>
<line class="st0" x1="548.1" y1="70" x2="758.1" y2="70"/>
<line class="st0" x1="548.1" y1="70" x2="548.1" y2="160"/>
<line class="st0" x1="548.1" y1="160" x2="578.1" y2="160"/>
<line class="st0" x1="794.1" y1="170" x2="804.1" y2="170"/>
<line class="st0" x1="794.1" y1="190" x2="804.1" y2="190"/>
<line class="st0" x1="796.1" y1="210" x2="806.1" y2="210"/>
<g>
	<line class="st0" x1="372" y1="54.6" x2="372" y2="59.8"/>
	<line class="st0" x1="372" y1="80.9" x2="372" y2="86.2"/>
	<rect x="367.8" y="59.8" class="st1" width="8.4" height="21.1"/>
	<text transform="matrix(1 0 0 1 340.3909 73.1877)" class="st2 st3">10 kΩ</text>
</g>
<line class="st0" x1="708.1" y1="210" x2="778.1" y2="210"/>
<line class="st0" x1="240" y1="81.8" x2="240" y2="480.8"/>
<line class="st0" x1="240" y1="81.8" x2="350" y2="81.8"/>
<line class="st0" x1="60" y1="103.8" x2="60" y2="480.8"/>
<line class="st0" x1="60" y1="480.9" x2="240" y2="480.9"/>
<line class="st0" x1="260" y1="125.8" x2="368.4" y2="125.8"/>
<line class="st0" x1="260" y1="101.8" x2="260" y2="125.8"/>
<g>
	<rect x="402.6" y="49.3" class="st1" width="43.8" height="87.5"/>
	<line class="st0" x1="391.7" y1="60.2" x2="402.6" y2="60.2"/>
	<line class="st0" x1="391.7" y1="82.1" x2="402.6" y2="82.1"/>
	<line class="st0" x1="391.7" y1="103.9" x2="402.6" y2="103.9"/>
	<line class="st0" x1="391.7" y1="125.8" x2="402.6" y2="125.8"/>
</g>
<line class="st0" x1="60" y1="101.8" x2="90" y2="101.8"/>
<line class="st0" x1="210" y1="61.8" x2="350" y2="60.8"/>
<line class="st0" x1="210" y1="101.8" x2="260" y2="101.8"/>
<line class="st0" x1="210" y1="60.8" x2="210" y2="69.8"/>
<path class="st4" d="M145,60.8c-0.4,0-1,0.5-1,0.5s-0.7-0.4-1-0.4c-0.4,0-1,0.6-1,0.6s-0.3-0.2-0.9-0.1c-0.5,0.1-0.7,0.5-0.7,0.5
	s-1.2-0.1-1.5,0.1c-0.3,0.2-0.8,0.7-0.8,0.7s-1-0.3-1.4,0.2c-0.4,0.5-0.1,1.6-0.1,1.6s-0.5,0.6-0.5,1c0,0.4,0.5,1,0.5,1
	s-0.4,0.4-0.2,0.8c0.1,0.4,0.8,1,0.8,1s-0.2,0.7,0,1.1c0.2,0.4,0.8,0.6,0.8,0.6s-0.2,0.4,0,0.9c0.2,0.5,1.3,1.2,1.3,1.2
	s0.1,0.6,0.4,0.8c0.2,0.3,1.2,0.5,1.2,0.5s0.2,0.8,0.5,0.9s1.2,0.5,1.2,0.5s-2.5,1.2-3.2,2.7c-0.7,1.5-1.2,5-1.2,5s-3.6,2.8-3.6,5.7
	c0,2.9,1.9,5.9,1.9,5.9s0.9,4.8,1.9,6.2c1,1.4,3.8,3.8,4.4,3.9c0.7,0.1,1,0.9,1.7,1.2c0.7,0.3,3,1.3,3,1.3s3.3,2.6,5.9,2.7v0
	c0,0,0,0,0,0c0,0,0,0,0,0v0c2.6-0.1,5.9-2.7,5.9-2.7s2.3-1,3-1.3c0.7-0.3,1-1.2,1.7-1.2c0.7-0.1,3.4-2.4,4.4-3.9
	c1-1.4,1.9-6.2,1.9-6.2s1.9-3,1.9-5.9c0-2.9-3.6-5.7-3.6-5.7s-0.5-3.5-1.2-5c-0.7-1.5-3.2-2.7-3.2-2.7s1-0.3,1.2-0.5
	c0.3-0.1,0.5-0.9,0.5-0.9s0.9-0.2,1.2-0.5c0.2-0.3,0.4-0.8,0.4-0.8s1-0.7,1.3-1.2c0.2-0.5,0-0.9,0-0.9s0.6-0.3,0.8-0.6
	c0.2-0.4,0-1.1,0-1.1s0.6-0.7,0.8-1c0.1-0.4-0.2-0.8-0.2-0.8s0.4-0.6,0.5-1c0-0.4-0.5-1-0.5-1s0.3-1.2-0.1-1.6s-1.4-0.2-1.4-0.2
	s-0.5-0.5-0.8-0.7c-0.3-0.2-1.5-0.1-1.5-0.1s-0.1-0.5-0.7-0.5c-0.5-0.1-0.9,0.1-0.9,0.1s-0.6-0.6-1-0.6c-0.4,0-1,0.4-1,0.4
	s-0.5-0.5-1-0.5c-0.4,0-1.1,0.7-1.1,0.7s-0.2-0.3-0.8-0.3c-0.5,0-1,0.5-1,0.5s-0.5-0.1-1.2-0.1c-0.6,0.1-1.1,0.9-1.2,0.9
	c-0.7-0.1-1.2,0.5-1.8,1.1c-0.6,0.5-1.3,2.4-1.5,2.9c-0.2-0.5-0.9-2.4-1.5-2.9c-0.7-0.6-1.2-1.2-1.8-1.1c-0.1,0-0.5-0.8-1.2-0.9
	c-0.6-0.1-1.2,0.1-1.2,0.1s-0.5-0.5-1-0.5c-0.5,0-0.8,0.3-0.8,0.3S145.4,60.7,145,60.8L145,60.8z M143,62.1c0.4,0,2.2,0.9,2.2,0.9
	s-0.4-1-0.2-0.9c0.3,0,1.7,1.2,1.7,1.2s-0.2-1.1,0.1-1c0.3,0.1,1.5,1.4,1.5,1.4s0.1-1,0.2-0.9c0.1,0,1.5,1.7,1.5,1.7s-0.3-1,0.4-0.7
	c0.6,0.3,1.9,2.6,2,4.3c0.1,1.8-1.6,2.4-1.6,2.4s-4.8-3.6-9.1-4.9c2.4,0.9,8.1,5.2,8.2,6c0.1,0.7-1.5,1.9-2.3,2.4
	c-0.8,0.5-3.9,0.4-3.9,0.4s1.8-0.6,0.7-0.6c-1.1,0-2.4-0.5-2.4-0.5s0.7-0.1,0.6-0.3c0-0.1-2.4-1.1-2.4-1.1s1,0.1,1-0.1
	c-0.1-0.2-2.2-1.5-2.2-1.5s0.9,0.1,0.8-0.1c-0.1-0.2-1.6-1.4-1.6-1.4s0.7,0.1,0.7-0.1c0-0.2-1.3-1.6-1.3-1.6s1.1,0.2,1.1,0
	c0-0.1-1.3-1.7-1.3-1.7s0.9,0.3,0.9,0c0-0.3-0.7-1.8-0.7-1.8l2.1,0c0,0-0.8-0.5-0.5-0.6c0.2-0.2,2.6,0.2,2.6,0.2s-0.6-0.7-0.3-0.8
	c0.3-0.1,2,0.6,2,0.6S142.6,62.2,143,62.1z M162,62.1c0.3,0-0.2,0.9-0.2,0.9s1.8-1,2.2-0.9c0.4,0-0.5,1-0.5,1s1.7-0.7,2-0.6
	c0.3,0.1-0.3,0.8-0.3,0.8s2.4-0.3,2.6-0.2c0.2,0.2-0.5,0.6-0.5,0.6l2.1,0c0,0-0.8,1.4-0.7,1.8c0,0.3,0.9,0,0.9,0s-1.3,1.6-1.3,1.7
	s1.1,0,1.1,0s-1.3,1.4-1.3,1.6c0,0.2,0.7,0.1,0.7,0.1s-1.4,1.2-1.6,1.4c-0.1,0.2,0.8,0.1,0.8,0.1s-2.1,1.3-2.2,1.5
	c-0.1,0.2,1,0.1,1,0.1s-2.3,1-2.4,1.1c0,0.1,0.6,0.3,0.6,0.3s-1.3,0.5-2.4,0.5c-1.1,0,0.7,0.6,0.7,0.6s-3.1,0.1-3.9-0.4
	c-0.8-0.5-2.4-1.7-2.3-2.4c0.1-0.7,5.9-5.1,8.2-6c-4.3,1.4-9.1,4.9-9.1,4.9s-1.7-0.7-1.6-2.4c0.1-1.8,1.4-4,2-4.3
	c0.6-0.3,0.4,0.7,0.4,0.7s1.3-1.6,1.5-1.7c0.1,0,0.2,0.9,0.2,0.9s1.2-1.3,1.5-1.4c0.3-0.1,0.1,1,0.1,1S161.7,62.1,162,62.1L162,62.1
	z M153.5,74.3c2.8,0,5,1.4,5,3.2s-2.2,3.2-5,3.2c-2.8,0-5-1.4-5-3.2C148.5,75.7,150.7,74.3,153.5,74.3z M146.2,75.5
	c0.6,0,1,0.1,1.1,0.3c0.5,0.6-3.1,3.6-3.1,3.6s-4,3.2-4.5,2.8s0.6-3.7,1.9-5.1C142.4,76.1,144.7,75.5,146.2,75.5z M160.4,75.5
	c1.4,0,3.7,0.6,4.7,1.6c1.3,1.4,2.4,4.7,1.9,5.1c-0.6,0.4-4.5-2.8-4.5-2.8s-3.7-3-3.1-3.6C159.4,75.6,159.8,75.5,160.4,75.5z
	 M159,80.4c0,0,0.1,0,0.1,0c1.9,0,3.9,1.4,5,3.6c1.4,2.9,0.6,6.2-1.8,7.3c-2.4,1.2-5.5-0.3-6.9-3.2c-1.4-2.9-0.6-6.2,1.8-7.3
	c0.5-0.3,1.1-0.4,1.7-0.4C158.9,80.4,159,80.4,159,80.4z M147.8,80.9c0.6,0,1.3,0.1,1.9,0.4c2.4,1.2,3.2,4.4,1.8,7.3
	c-1.4,2.9-4.5,4.3-6.9,3.2c-2.4-1.2-3.2-4.4-1.8-7.3C143.8,82.3,145.8,81,147.8,80.9z M139,84.1c1.2,0,1,3.1,0.9,4.8
	c-0.1,1.9-1.6,4.2-2.3,4.3c-0.7,0.1-1.6-2.2-1.7-4.9c-0.1-2.7,2.8-4.2,2.8-4.2C138.9,84.1,138.9,84.1,139,84.1L139,84.1z
	 M167.6,84.1c0.1,0,0.2,0,0.3,0c0,0,2.9,1.5,2.8,4.2c-0.1,2.7-1,5.1-1.7,4.9c-0.7-0.1-2.1-2.5-2.3-4.3
	C166.5,87.2,166.4,84.1,167.6,84.1L167.6,84.1z M153.4,90.9c3,0,5.5,2.5,5.5,5.5c0,3-2.5,5.5-5.5,5.5s-5.5-2.5-5.5-5.5
	C147.9,93.3,150.4,90.9,153.4,90.9z M165.4,93.6c1,0,1.7,0.5,1.7,0.5c0.9,0.7,0.6,3.4-0.1,5.1c-0.6,1.7-2.4,2.6-2.9,3.1
	c-0.5,0.6-3.5,0.7-4.1,0c-0.6-0.7-0.3-2.9,0-3.8c0.3-0.9,0.9-1.8,3-3.8C163.9,93.9,164.7,93.6,165.4,93.6L165.4,93.6z M141.1,93.7
	c0.7,0,1.5,0.3,2.4,1.1c2.1,2,2.7,2.9,3,3.8s0.6,3.1,0,3.8c-0.6,0.7-3.5,0.5-4.1,0c-0.5-0.6-2.3-1.4-2.9-3.1c-0.6-1.7-1-4.4-0.1-5.1
	C139.4,94.2,140.1,93.7,141.1,93.7L141.1,93.7z M153.3,102.8c0,0,5.4,0.3,5.3,1.7c-0.1,1.5-3.4,3.4-4.7,3.4c-1.4,0-5.7-1.1-5.7-2.9
	S153.3,102.8,153.3,102.8"/>
<rect x="90" y="52.8" class="st1" width="120" height="400"/>
<path class="st0" d="M90,65.8"/>
<path class="st0" d="M90,85.8"/>
<text transform="matrix(1 0 0 1 92.0002 65.7501)" class="st2 st5">3V3</text>
<text transform="matrix(1 0 0 1 92.0002 85.7502)" class="st2 st5">GPIO2</text>
<text transform="matrix(1 0 0 1 92.0002 105.7502)" class="st2 st5">GPIO3</text>
<text transform="matrix(1 0 0 1 92.0002 125.7502)" class="st2 st5">GPIO4</text>
<text transform="matrix(1 0 0 1 92.0002 145.7502)" class="st2 st5">GND</text>
<text transform="matrix(1 0 0 1 92.0002 165.7502)" class="st2 st5">GPIO17</text>
<text transform="matrix(1 0 0 1 92.0002 185.7502)" class="st2 st5">GPIO27</text>
<text transform="matrix(1 0 0 1 92.0002 205.7502)" class="st2 st5">GPIO22</text>
<text transform="matrix(1 0 0 1 92.0002 225.7502)" class="st2 st5">3V3</text>
<text transform="matrix(1 0 0 1 92.0002 245.7502)" class="st2 st5">GPIO10</text>
<text transform="matrix(1 0 0 1 92.0002 265.7502)" class="st2 st5">GPIO9</text>
<text transform="matrix(1 0 0 1 92.0002 285.7502)" class="st2 st5">GPIO11</text>
<text transform="matrix(1 0 0 1 92.0002 305.7502)" class="st2 st5">GND</text>
<text transform="matrix(1 0 0 1 92.0002 325.7502)" class="st2 st5">ID_SD</text>
<text transform="matrix(1 0 0 1 92.0002 345.7502)" class="st2 st5">GPIO5</text>
<text transform="matrix(1 0 0 1 92.0002 365.7502)" class="st2 st5">GPIO6</text>
<text transform="matrix(1 0 0 1 92.0002 385.7502)" class="st2 st5">GPIO13</text>
<text transform="matrix(1 0 0 1 92.0002 405.7502)" class="st2 st5">GPIO19</text>
<text transform="matrix(1 0 0 1 92.0002 425.7502)" class="st2 st5">GPIO26</text>
<text transform="matrix(1 0 0 1 92.0002 445.7502)" class="st2 st5">GND</text>
<text transform="matrix(1 0 0 1 188.428 65.7501)" class="st2 st5">5V0</text>
<text transform="matrix(1 0 0 1 188.428 85.7502)" class="st2 st5">5V0</text>
<text transform="matrix(1 0 0 1 183.5564 105.7502)" class="st2 st5">GND</text>
<text transform="matrix(1 0 0 1 168.2595 125.7502)" class="st2 st5">GPIO14</text>
<text transform="matrix(1 0 0 1 168.2595 145.7502)" class="st2 st5">GPIO15</text>
<text transform="matrix(1 0 0 1 168.2595 165.7502)" class="st2 st5">GPIO18</text>
<text transform="matrix(1 0 0 1 183.5564 185.7502)" class="st2 st5">GND</text>
<text transform="matrix(1 0 0 1 168.2595 205.7502)" class="st2 st5">GPIO23</text>
<text transform="matrix(1 0 0 1 168.2595 225.7502)" class="st2 st5">GPIO24</text>
<text transform="matrix(1 0 0 1 183.5564 245.7502)" class="st2 st5">GND</text>
<text transform="matrix(1 0 0 1 168.2595 265.7502)" class="st2 st5">GPIO25</text>
<text transform="matrix(1 0 0 1 174.3772 285.7502)" class="st2 st5">GPIO8</text>
<text transform="matrix(1 0 0 1 174.3772 305.7502)" class="st2 st5">GPIO7</text>
<text transform="matrix(1 0 0 1 175.6018 325.7502)" class="st2 st5">ID_SC</text>
<text transform="matrix(1 0 0 1 183.5564 345.7502)" class="st2 st5">GND</text>
<text transform="matrix(1 0 0 1 168.2595 365.7502)" class="st2 st5">GPIO12</text>
<text transform="matrix(1 0 0 1 183.5564 385.7502)" class="st2 st5">GND</text>
<text transform="matrix(1 0 0 1 168.2595 405.7502)" class="st2 st5">GPIO16</text>
<text transform="matrix(1 0 0 1 168.2595 425.7502)" class="st2 st5">GPIO20</text>
<text transform="matrix(1 0 0 1 168.2595 445.7502)" class="st2 st5">GPIO21</text>
<rect x="583.1" y="85" class="st1" width="120" height="195"/>
<text transform="matrix(1 0 0 1 619.1018 115.0002)" class="st2 st5">ARDUINO</text>
<text transform="matrix(1 0 0 1 626.1018 125.0002)" class="st2 st5">UNO r3</text>
<line class="st0" x1="578.1" y1="140" x2="583.1" y2="140"/>
<line class="st0" x1="578.1" y1="150" x2="583.1" y2="150"/>
<line class="st0" x1="578.1" y1="160" x2="583.1" y2="160"/>
<line class="st0" x1="578.1" y1="170" x2="583.1" y2="170"/>
<line class="st0" x1="578.1" y1="180" x2="583.1" y2="180"/>
<line class="st0" x1="578.1" y1="190" x2="583.1" y2="190"/>
<line class="st0" x1="578.1" y1="200" x2="583.1" y2="200"/>
<line class="st0" x1="578.1" y1="220" x2="583.1" y2="220"/>
<line class="st0" x1="578.1" y1="230" x2="583.1" y2="230"/>
<line class="st0" x1="578.1" y1="240" x2="583.1" y2="240"/>
<line class="st0" x1="578.1" y1="250" x2="583.1" y2="250"/>
<line class="st0" x1="578.1" y1="260" x2="583.1" y2="260"/>
<line class="st0" x1="578.1" y1="270" x2="583.1" y2="270"/>
<line class="st0" x1="703.1" y1="110" x2="708.1" y2="110"/>
<line class="st0" x1="703.1" y1="120" x2="708.1" y2="120"/>
<line class="st0" x1="703.1" y1="130" x2="708.1" y2="130"/>
<line class="st0" x1="703.1" y1="140" x2="708.1" y2="140"/>
<line class="st0" x1="703.1" y1="150" x2="708.1" y2="150"/>
<line class="st0" x1="703.1" y1="160" x2="708.1" y2="160"/>
<line class="st0" x1="703.1" y1="170" x2="708.1" y2="170"/>
<line class="st0" x1="703.1" y1="180" x2="708.1" y2="180"/>
<line class="st0" x1="703.1" y1="200" x2="708.1" y2="200"/>
<line class="st0" x1="703.1" y1="210" x2="708.1" y2="210"/>
<line class="st0" x1="703.1" y1="220" x2="708.1" y2="220"/>
<line class="st0" x1="703.1" y1="230" x2="708.1" y2="230"/>
<line class="st0" x1="703.1" y1="240" x2="708.1" y2="240"/>
<line class="st0" x1="703.1" y1="250" x2="708.1" y2="250"/>
<line class="st0" x1="703.1" y1="260" x2="708.1" y2="260"/>
<line class="st0" x1="703.1" y1="270" x2="708.1" y2="270"/>
<text transform="matrix(1 0 0 1 587.1018 140.0002)" class="st2 st5">IOREF</text>
<text transform="matrix(1 0 0 1 587.1018 150.0002)" class="st2 st5">RESET</text>
<text transform="matrix(1 0 0 1 587.1018 160.0002)" class="st2 st5">3.3V</text>
<text transform="matrix(1 0 0 1 587.1018 170.0002)" class="st2 st5">5V</text>
<text transform="matrix(1 0 0 1 587.1018 180.0002)" class="st2 st5">GND</text>
<text transform="matrix(1 0 0 1 587.1018 190.0002)" class="st2 st5">GND</text>
<text transform="matrix(1 0 0 1 587.1018 200.0002)" class="st2 st5">Vin</text>
<text transform="matrix(1 0 0 1 587.1018 220.0002)" class="st2 st5">A0</text>
<text transform="matrix(1 0 0 1 587.1018 230.0002)" class="st2 st5">A1</text>
<text transform="matrix(1 0 0 1 587.1018 240.0002)" class="st2 st5">A2</text>
<text transform="matrix(1 0 0 1 587.1018 250.0002)" class="st2 st5">A3</text>
<text transform="matrix(1 0 0 1 587.1018 260.0002)" class="st2 st5">A4</text>
<text transform="matrix(1 0 0 1 587.1018 270.0002)" class="st2 st5">A5</text>
<text transform="matrix(1 0 0 1 669.7648 110.0002)" class="st2 st5">AREF</text>
<text transform="matrix(1 0 0 1 674.6579 120.0002)" class="st2 st5">GND</text>
<text transform="matrix(1 0 0 1 678.9225 130.0002)" class="st2 st5">D13</text>
<text transform="matrix(1 0 0 1 678.9225 140.0002)" class="st2 st5">D12</text>
<text transform="matrix(1 0 0 1 649.8005 150.0002)" class="st2 st5">PWM D11</text>
<text transform="matrix(1 0 0 1 648.9841 160.0002)" class="st2 st5">PWM D10</text>
<text transform="matrix(1 0 0 1 655.1017 170.0002)" class="st2 st5">PWM D9</text>
<text transform="matrix(1 0 0 1 685.0402 180.0002)" class="st2 st5">D8</text>
<text transform="matrix(1 0 0 1 685.0402 200.0002)" class="st2 st5">D7</text>
<text transform="matrix(1 0 0 1 655.1017 210.0002)" class="st2 st5">PWM D6</text>
<text transform="matrix(1 0 0 1 655.1017 220.0002)" class="st2 st5">PWM D5</text>
<text transform="matrix(1 0 0 1 685.0402 230.0002)" class="st2 st5">D4</text>
<text transform="matrix(1 0 0 1 655.1017 240.0002)" class="st2 st5">PWM D3</text>
<text transform="matrix(1 0 0 1 685.0402 250.0002)" class="st2 st5">D2</text>
<text transform="matrix(1 0 0 1 667.9279 260.0002)" class="st2 st5">TX D1</text>
<text transform="matrix(1 0 0 1 666.7033 270.0002)" class="st2 st5">RX D0</text>
<path class="st6" d="M643.1,100c2,9,15,9,15,0S645.1,91,643.1,100"/>
<path class="st6" d="M643.1,100c-2-9-15-9-15,0S641.1,109,643.1,100"/>
<line class="st0" x1="649.1" y1="100" x2="653.1" y2="100"/>
<line class="st0" x1="651.1" y1="102" x2="651.1" y2="98"/>
<line class="st0" x1="637.1" y1="100" x2="633.1" y2="100"/>
<g>
	<line class="st0" x1="84.2" y1="61.8" x2="88.9" y2="61.8"/>
	<line class="st0" x1="84.2" y1="81.8" x2="88.9" y2="81.8"/>
	<line class="st0" x1="84.2" y1="101.8" x2="88.9" y2="101.8"/>
	<line class="st0" x1="84.2" y1="121.8" x2="88.9" y2="121.8"/>
	<line class="st0" x1="84.2" y1="141.8" x2="88.9" y2="141.8"/>
	<line class="st0" x1="84.2" y1="161.8" x2="88.9" y2="161.8"/>
	<line class="st0" x1="84.2" y1="181.8" x2="88.9" y2="181.8"/>
	<line class="st0" x1="84.2" y1="221.8" x2="88.9" y2="221.8"/>
	<line class="st0" x1="84.2" y1="201.8" x2="88.9" y2="201.8"/>
	<line class="st0" x1="84.2" y1="261.8" x2="88.9" y2="261.8"/>
	<line class="st0" x1="84.2" y1="241.8" x2="88.9" y2="241.8"/>
	<line class="st0" x1="84.2" y1="281.8" x2="88.9" y2="281.8"/>
	<line class="st0" x1="84.2" y1="301.8" x2="88.9" y2="301.8"/>
	<line class="st0" x1="84.2" y1="321.8" x2="88.9" y2="321.8"/>
	<line class="st0" x1="84.2" y1="341.8" x2="88.9" y2="341.8"/>
	<line class="st0" x1="84.2" y1="361.8" x2="88.9" y2="361.8"/>
	<line class="st0" x1="84.2" y1="401.8" x2="88.9" y2="401.8"/>
	<line class="st0" x1="84.2" y1="381.8" x2="88.9" y2="381.8"/>
	<line class="st0" x1="84.2" y1="421.8" x2="88.9" y2="421.8"/>
	<line class="st0" x1="84.2" y1="441.8" x2="88.9" y2="441.8"/>
</g>
<g>
	<line class="st0" x1="211" y1="61.8" x2="215.6" y2="61.8"/>
	<line class="st0" x1="211" y1="81.8" x2="215.6" y2="81.8"/>
	<line class="st0" x1="211" y1="101.8" x2="215.6" y2="101.8"/>
	<line class="st0" x1="211" y1="121.8" x2="215.6" y2="121.8"/>
	<line class="st0" x1="211" y1="141.8" x2="215.6" y2="141.8"/>
	<line class="st0" x1="211" y1="161.8" x2="215.6" y2="161.8"/>
	<line class="st0" x1="211" y1="181.8" x2="215.6" y2="181.8"/>
	<line class="st0" x1="211" y1="221.8" x2="215.6" y2="221.8"/>
	<line class="st0" x1="211" y1="201.8" x2="215.6" y2="201.8"/>
	<line class="st0" x1="211" y1="261.8" x2="215.6" y2="261.8"/>
	<line class="st0" x1="211" y1="241.8" x2="215.6" y2="241.8"/>
	<line class="st0" x1="211" y1="281.8" x2="215.6" y2="281.8"/>
	<line class="st0" x1="211" y1="301.8" x2="215.6" y2="301.8"/>
	<line class="st0" x1="211" y1="321.8" x2="215.6" y2="321.8"/>
	<line class="st0" x1="211" y1="341.8" x2="215.6" y2="341.8"/>
	<line class="st0" x1="211" y1="361.8" x2="215.6" y2="361.8"/>
	<line class="st0" x1="211" y1="401.8" x2="215.6" y2="401.8"/>
	<line class="st0" x1="211" y1="381.8" x2="215.6" y2="381.8"/>
	<line class="st0" x1="211" y1="421.8" x2="215.6" y2="421.8"/>
	<line class="st0" x1="211" y1="441.8" x2="215.6" y2="441.8"/>
</g>
<circle class="st0" cx="876.6" cy="189" r="72.5"/>
<circle class="st0" cx="876.6" cy="189" r="49.5"/>
<polyline class="st7" points="149.7,491.1 149.7,506 649,506 649,293.2 "/>
<g>
	<text transform="matrix(1 0 0 1 412.4483 482.7043)" class="st2 st5">USB</text>
</g>
<circle class="st8" cx="815.6" cy="190.6" r="8.6"/>
<circle class="st8" cx="937.7" cy="190.6" r="8.6"/>
<circle class="st8" cx="929.7" cy="158" r="8.6"/>
<circle class="st8" cx="906.3" cy="136.5" r="8.6"/>
<circle class="st8" cx="845.7" cy="136.4" r="8.6"/>
<circle class="st8" cx="824.2" cy="159.8" r="8.6"/>
<circle class="st8" cx="824.2" cy="220.1" r="8.6"/>
<circle class="st8" cx="847.6" cy="241.7" r="8.6"/>
<circle class="st8" cx="908.2" cy="241.7" r="8.6"/>
<circle class="st8" cx="929.7" cy="218.3" r="8.6"/>
<circle class="st8" cx="876.6" cy="127.5" r="8.6"/>
<circle class="st8" cx="876.6" cy="249.6" r="8.6"/>
<g>
	<text transform="matrix(1 0 0 1 847.6017 101.3611)" class="st2 st5">NEOPIXEL</text>
</g>
<g>
	<text transform="matrix(1 0 0 1 783.3245 166.5922)"><tspan x="0" y="0" class="st2 st9">GND</tspan><tspan x="-0.9" y="19" class="st2 st9">PWR</tspan><tspan x="9.8" y="38" class="st2 st9">DI</tspan></text>
</g>
<g>
	<text transform="matrix(1 0 0 1 378.512 54.5742)"><tspan x="0" y="0" class="st2 st9">PWR</tspan><tspan x="6.7" y="22" class="st2 st9">DO</tspan><tspan x="0.9" y="66" class="st2 st9">GND</tspan></text>
</g>
<g>
	<text transform="matrix(6.123234e-17 1 -1 6.123234e-17 420.0547 74.3888)" class="st2 st5">DHT22</text>
</g>
</svg>
